<?xml version="1.0" encoding="utf-8"?>
<!-- Generator: Adobe Illustrator 24.0.1, SVG Export Plug-In . SVG Version: 6.00 Build 0)  -->
<svg version="1.1" id="Layer_1" xmlns="http://www.w3.org/2000/svg" xmlns:xlink="http://www.w3.org/1999/xlink" x="0px" y="0px"
	 viewBox="0 0 680 403" style="enable-background:new 0 0 680 403;" xml:space="preserve">
<style type="text/css">
	.st0{fill:#FFFFFF;}
	.st1{fill:none;}
	.st2{font-family:'MyriadPro-Regular';}
	.st3{font-size:12px;}
</style>
<g>
	<rect x="34.5" y="30.5" class="st0" width="613" height="341"/>
	<path d="M647,31v340H35V31H647 M648,30H34v342h614V30L648,30z"/>
</g>
<g>
	<rect x="334.5" y="292.5" class="st0" width="313" height="79"/>
	<path d="M647,293v78H335v-78H647 M648,292H334v80h314V292L648,292z"/>
</g>
<g>
	<rect x="34.5" y="292.5" class="st0" width="299" height="79"/>
	<path d="M333,293v78H35v-78H333 M334,292H34v80h300V292L334,292z"/>
</g>
<g>
	<rect x="533.5" y="31.5" class="st0" width="113" height="261"/>
	<path d="M646,32v260H534V32H646 M647,31H533v262h114V31L647,31z"/>
</g>
<g>
	<rect x="35.5" y="31.5" class="st0" width="113" height="261"/>
	<path d="M148,32v260H36V32H148 M149,31H35v262h114V31L149,31z"/>
</g>
<g>
	<rect x="281.5" y="31.5" class="st0" width="113" height="261"/>
	<path d="M394,32v260H282V32H394 M395,31H281v262h114V31L395,31z"/>
</g>
<g>
	<rect x="395.5" y="31.5" class="st0" width="137" height="136"/>
	<path d="M532,32v135H396V32H532 M533,31H395v137h138V31L533,31z"/>
</g>
<g>
	<rect x="147.5" y="30.5" class="st0" width="133" height="136"/>
	<path d="M280,31v135H148V31H280 M281,30H147v137h134V30L281,30z"/>
</g>
<g>
	<rect x="395.5" y="168.5" class="st0" width="137" height="123"/>
	<path d="M532,169v122H396V169H532 M533,168H395v124h138V168L533,168z"/>
</g>
<g>
	<rect x="147.5" y="167.5" class="st0" width="133" height="124"/>
	<path d="M280,168v123H148V168H280 M281,167H147v125h134V167L281,167z"/>
</g>
<rect x="538.7" y="38.39" class="st1" width="102.72" height="48.3"/>
<text transform="matrix(1 0 0 1 538.7002 46.9077)" class="st2 st3">Kunder</text>
<rect x="286.72" y="38.35" class="st1" width="102.04" height="48.98"/>
<text transform="matrix(1 0 0 1 286.7212 46.8672)" class="st2 st3">Værdi tilbud</text>
<rect x="403.73" y="39.71" class="st1" width="112.93" height="58.5"/>
<text transform="matrix(1 0 0 1 403.7275 48.2275)" class="st2 st3">Relationer</text>
<rect x="401.01" y="175.08" class="st1" width="107.48" height="49.66"/>
<text transform="matrix(1 0 0 1 401.0068 183.6016)" class="st2 st3">Kanaler</text>
<rect x="152.03" y="34.27" class="st1" width="112.24" height="48.3"/>
<text transform="matrix(1 0 0 1 152.0273 42.7852)" class="st2 st3">Aktiviteter</text>
<rect x="40.46" y="37.67" class="st1" width="92.52" height="47.62"/>
<text transform="matrix(1 0 0 1 40.4624 46.1865)" class="st2 st3">Partnere</text>
<rect x="152.03" y="175.08" class="st1" width="123.81" height="60.54"/>
<text transform="matrix(1 0 0 1 152.0273 183.6016)" class="st2 st3">Resourser </text>
<rect x="41.14" y="298.21" class="st1" width="140.82" height="46.94"/>
<text transform="matrix(1 0 0 1 41.1431 306.7305)" class="st2 st3">Omkostninger</text>
<rect x="339.78" y="296.17" class="st1" width="159.86" height="34.01"/>
<text transform="matrix(1 0 0 1 339.7822 304.6895)" class="st2 st3">Indtægt</text>
<rect x="35.7" y="14.12" class="st1" width="408.16" height="58.5"/>
<text transform="matrix(1 0 0 1 35.7007 22.6357)" class="st2 st3">Eksempel på Business Model Canvas</text>
</svg>
