<?xml version="1.0" encoding="utf-8"?>
<!-- Generator: Adobe Illustrator 24.0.1, SVG Export Plug-In . SVG Version: 6.00 Build 0)  -->
<svg version="1.1" id="Layer_1" xmlns="http://www.w3.org/2000/svg" xmlns:xlink="http://www.w3.org/1999/xlink" x="0px" y="0px"
	 viewBox="0 0 222 292.05" style="enable-background:new 0 0 222 292.05;" xml:space="preserve">
<style type="text/css">
	.st0{fill:none;}
	.st1{fill:#0000FF;}
	.st2{font-family:'MyriadPro-Regular';}
	.st3{font-size:24px;}
	.st4{fill:#FF0000;}
	.st5{letter-spacing:30;}
	.st6{fill:#FCEE21;}
</style>
<rect x="7" y="7.05" class="st0" width="549" height="521"/>
<text transform="matrix(1 0 0 1 7 24.0879)"><tspan x="0" y="0" class="st1 st2 st3">&lt;</tspan><tspan x="14.3" y="0" class="st4 st2 st3">style</tspan><tspan x="60.74" y="0" class="st1 st2 st3">&gt; </tspan><tspan x="0" y="28.8" class="st2 st3 st5">	</tspan><tspan x="36" y="28.8" class="st4 st2 st3">h1</tspan><tspan x="61.63" y="28.8" class="st2 st3"> {</tspan><tspan x="0" y="57.6" class="st2 st3 st5">		</tspan><tspan x="72" y="57.6" class="st4 st2 st3">color</tspan><tspan x="122.62" y="57.6" class="st2 st3">: </tspan><tspan x="132.67" y="57.6" class="st6 st2 st3">yellow</tspan><tspan x="198.17" y="57.6" class="st2 st3">; </tspan><tspan x="0" y="86.4" class="st2 st3 st5">	</tspan><tspan x="36" y="86.4" class="st2 st3">      }</tspan><tspan x="0" y="144" class="st2 st3 st5">	</tspan><tspan x="36" y="144" class="st4 st2 st3">h1</tspan><tspan x="61.63" y="144" class="st2 st3"> {</tspan><tspan x="0" y="172.8" class="st2 st3 st5">		</tspan><tspan x="72" y="172.8" class="st4 st2 st3">color</tspan><tspan x="122.62" y="172.8" class="st2 st3">: black; </tspan><tspan x="0" y="201.6" class="st2 st3 st5">	</tspan><tspan x="36" y="201.6" class="st2 st3">      }</tspan><tspan x="0" y="230.4" class="st1 st2 st3">&lt;</tspan><tspan x="14.3" y="230.4" class="st4 st2 st3">/style</tspan><tspan x="68.97" y="230.4" class="st1 st2 st3">&gt;</tspan></text>
</svg>
