<?xml version="1.0" encoding="utf-8"?>
<!-- Generator: Adobe Illustrator 24.0.1, SVG Export Plug-In . SVG Version: 6.00 Build 0)  -->
<svg version="1.1" id="Layer_1" xmlns="http://www.w3.org/2000/svg" xmlns:xlink="http://www.w3.org/1999/xlink" x="0px" y="0px"
	 viewBox="0 0 622 229" style="enable-background:new 0 0 622 229;" xml:space="preserve">
<style type="text/css">
	.st0{fill:none;}
	.st1{font-family:'MyriadPro-Regular';}
	.st2{font-size:36px;}
	.st3{fill:#0000FF;}
	.st4{fill:#ED1E79;}
	.st5{font-size:18px;}
	.st6{fill:#FFFFFF;}
</style>
<rect x="48.45" y="70.26" class="st0" width="568.55" height="79.74"/>
<text transform="matrix(1 0 0 1 48.4492 95.8179)"><tspan x="0" y="0" class="st1 st2">a {  </tspan><tspan x="50.47" y="0" class="st3 st1 st2">background-color </tspan><tspan x="327.7" y="0" class="st1 st2">: </tspan><tspan x="342.79" y="0" class="st4 st1 st2">red </tspan><tspan x="400.53" y="0" class="st1 st2">;  }</tspan></text>
<rect x="25.11" y="32.36" class="st0" width="112.24" height="31.29"/>
<text transform="matrix(1 0 0 1 25.1089 45.1401)" class="st1 st5">Selector</text>
<rect x="175.38" y="31.77" class="st0" width="241.5" height="30.61"/>
<text transform="matrix(1 0 0 1 175.3809 44.5483)" class="st1 st5">Property</text>
<rect x="391.05" y="31.89" class="st0" width="79.59" height="21.09"/>
<text transform="matrix(1 0 0 1 391.0479 44.6709)" class="st1 st5">Value</text>
<rect x="22.07" y="135.81" class="st0" width="156.46" height="53.06"/>
<text transform="matrix(1 0 0 1 22.0679 148.5898)" class="st1 st5">Delcaration start</text>
<rect x="223" y="135.4" class="st0" width="214" height="87.6"/>
<text transform="matrix(1 0 0 1 223 148.1812)" class="st1 st5">Proeperty/value separator</text>
<line class="st0" x1="85" y1="105" x2="85" y2="131"/>
<line class="st6" x1="383" y1="105" x2="383" y2="132"/>
<line x1="85" y1="105" x2="85" y2="132"/>
<line x1="383" y1="103" x2="383" y2="131"/>
<line x1="453" y1="106" x2="453" y2="161"/>
<line x1="59" y1="62" x2="59" y2="49"/>
<line x1="209" y1="67" x2="209" y2="51"/>
<line class="st0" x1="408" y1="53" x2="408" y2="69"/>
<line x1="412" y1="67" x2="412" y2="51"/>
<rect x="409.82" y="169.9" class="st0" width="123.13" height="40.82"/>
<text transform="matrix(1 0 0 1 409.8232 182.6846)"><tspan x="0" y="0" class="st1 st5">Declaration</tspan><tspan x="0" y="21.6" class="st1 st5">Separator</tspan></text>
<rect x="459.48" y="32.09" class="st0" width="127.21" height="35.37"/>
<text transform="matrix(1 0 0 1 459.4834 44.8682)" class="st1 st5">Delcaration end</text>
<line class="st0" x1="476" y1="50" x2="476" y2="65"/>
<line class="st0" x1="540" y1="68" x2="540" y2="83"/>
<line class="st0" x1="393" y1="-6" x2="393" y2="-7"/>
<line x1="478" y1="64" x2="478" y2="52"/>
<line class="st0" x1="23" y1="152" x2="417" y2="152"/>
</svg>
