<?xml version="1.0" encoding="utf-8"?>
<!-- Generator: Adobe Illustrator 24.0.1, SVG Export Plug-In . SVG Version: 6.00 Build 0)  -->
<svg version="1.1" id="Layer_1" xmlns="http://www.w3.org/2000/svg" xmlns:xlink="http://www.w3.org/1999/xlink" x="0px" y="0px"
	 viewBox="0 0 525 263" style="enable-background:new 0 0 525 263;" xml:space="preserve">
<style type="text/css">
	.st0{fill:#FFFFFF;}
	.st1{fill:none;}
	.st2{font-family:'MyriadPro-Regular';}
	.st3{font-size:18px;}
</style>
<g>
	<polygon class="st0" points="5.23,92.31 34.35,41.26 93.12,40.95 122.77,91.69 93.65,142.74 34.88,143.05 	"/>
	<path d="M92.83,41.46l29.36,50.24l-28.83,50.54l-58.19,0.3L5.81,92.3l28.83-50.54L92.83,41.46 M93.4,40.45l-59.34,0.31L4.66,92.31
		l29.94,51.24l59.34-0.31l29.4-51.55L93.4,40.45L93.4,40.45z"/>
</g>
<g>
	<polygon class="st0" points="98.91,146.29 128.03,95.25 186.8,94.94 216.45,145.68 187.33,196.73 128.56,197.03 	"/>
	<path d="M186.51,95.44l29.36,50.24l-28.83,50.54l-58.19,0.3l-29.36-50.24l28.83-50.54L186.51,95.44 M187.08,94.44l-59.34,0.31
		l-29.4,51.55l29.94,51.24l59.34-0.31l29.4-51.55L187.08,94.44L187.08,94.44z"/>
</g>
<g>
	<polygon class="st0" points="192.91,93.29 222.03,42.25 280.8,41.94 310.45,92.68 281.33,143.73 222.56,144.03 	"/>
	<path d="M280.51,42.44l29.36,50.24l-28.83,50.54l-58.19,0.3l-29.36-50.24l28.83-50.54L280.51,42.44 M281.08,41.44l-59.34,0.31
		l-29.4,51.55l29.94,51.24l59.34-0.31l29.4-51.55L281.08,41.44L281.08,41.44z"/>
</g>
<g>
	<polygon class="st0" points="285.91,147.29 315.03,96.25 373.8,95.94 403.45,146.68 374.33,197.73 315.56,198.03 	"/>
	<path d="M373.51,96.44l29.36,50.24l-28.83,50.54l-58.19,0.3l-29.36-50.24l28.83-50.54L373.51,96.44 M374.08,95.44l-59.34,0.31
		l-29.4,51.55l29.94,51.24l59.34-0.31l29.4-51.55L374.08,95.44L374.08,95.44z"/>
</g>
<g>
	<polygon class="st0" points="379.91,201.29 409.03,150.25 467.8,149.94 497.45,200.68 468.33,251.73 409.56,252.03 	"/>
	<path d="M467.51,150.44l29.36,50.24l-28.83,50.54l-58.19,0.3l-29.36-50.24l28.83-50.54L467.51,150.44 M468.08,149.44l-59.34,0.31
		l-29.4,51.55l29.94,51.24l59.34-0.31l29.4-51.55L468.08,149.44L468.08,149.44z"/>
</g>
<rect x="22.51" y="84.73" class="st1" width="104.49" height="24.27"/>
<text transform="matrix(1 0 0 1 22.5103 97.5146)" class="st2 st3">Empathize</text>
<rect x="125.47" y="138.07" class="st1" width="80.95" height="25.17"/>
<text transform="matrix(1 0 0 1 125.4692 150.8545)" class="st2 st3">Define</text>
<rect x="221.63" y="84.41" class="st1" width="85.03" height="31.29"/>
<text transform="matrix(1 0 0 1 221.626 97.1948)" class="st2 st3">Ideate</text>
<rect x="303.22" y="137.2" class="st1" width="82.31" height="19.73"/>
<text transform="matrix(1 0 0 1 303.2246 149.9771)" class="st2 st3">Prototype</text>
<rect x="423.34" y="193.14" class="st1" width="93.2" height="23.81"/>
<text transform="matrix(1 0 0 1 423.3403 205.916)" class="st2 st3">Test</text>
<rect x="32.03" y="16.33" class="st1" width="310.2" height="59.86"/>
<text transform="matrix(1 0 0 1 32.0273 29.1064)" class="st2 st3">Design thinking diagram</text>
</svg>
