<?xml version="1.0" encoding="utf-8"?>
<!-- Generator: Adobe Illustrator 24.0.1, SVG Export Plug-In . SVG Version: 6.00 Build 0)  -->
<svg version="1.1" id="Layer_1" xmlns="http://www.w3.org/2000/svg" xmlns:xlink="http://www.w3.org/1999/xlink" x="0px" y="0px"
	 viewBox="0 0 585 596" style="enable-background:new 0 0 585 596;" xml:space="preserve">
<style type="text/css">
	.st0{fill:#FFFFFF;stroke:#1D1D1B;stroke-miterlimit:10;}
	.st1{fill:none;}
	.st2{font-family:'MyriadPro-Regular';}
	.st3{font-size:48px;}
</style>
<rect class="st0" width="585" height="596"/>
<rect x="16" y="22" class="st0" width="553" height="110"/>
<rect x="16" y="145" class="st0" width="553" height="68"/>
<rect x="16" y="226" class="st0" width="276.5" height="115"/>
<rect x="16" y="354.5" class="st0" width="276.5" height="116"/>
<rect x="309" y="226" class="st0" width="257" height="244"/>
<rect x="16" y="480" class="st0" width="553" height="100"/>
<rect x="192" y="51" class="st1" width="320" height="72"/>
<text transform="matrix(1 0 0 1 192 85.0796)" class="st2 st3">&lt;header&gt;</text>
<rect x="228" y="157.5" class="st1" width="305" height="43"/>
<text transform="matrix(1 0 0 1 228 191.5796)" class="st2 st3">&lt;nav&gt;</text>
<rect x="52" y="262" class="st1" width="219" height="79"/>
<text transform="matrix(1 0 0 1 52 296.0796)" class="st2 st3">&lt;section&gt;</text>
<rect x="58" y="388" class="st1" width="207" height="66"/>
<text transform="matrix(1 0 0 1 58 422.0801)" class="st2 st3">&lt;article&gt;</text>
<rect x="374" y="331" class="st1" width="235" height="90"/>
<text transform="matrix(1 0 0 1 374 365.0796)" class="st2 st3">&lt;aside&gt;</text>
<rect x="192" y="516" class="st1" width="428" height="80"/>
<text transform="matrix(1 0 0 1 192 550.0801)" class="st2 st3">&lt;footer&gt;</text>
</svg>
