<?xml version="1.0" encoding="utf-8"?>
<!-- Generator: Adobe Illustrator 24.0.1, SVG Export Plug-In . SVG Version: 6.00 Build 0)  -->
<svg version="1.1" id="Layer_1" xmlns="http://www.w3.org/2000/svg" xmlns:xlink="http://www.w3.org/1999/xlink" x="0px" y="0px"
	 viewBox="0 0 716 136" style="enable-background:new 0 0 716 136;" xml:space="preserve">
<style type="text/css">
	.st0{fill:#FFFFFF;}
	.st1{fill:none;stroke:#000000;stroke-miterlimit:10;}
	.st2{fill-rule:evenodd;clip-rule:evenodd;fill:none;stroke:#000000;stroke-miterlimit:10;}
</style>
<g>
	<rect x="201.5" y="35.5" class="st0" width="240" height="72"/>
	<path d="M441,36v71H202V36H441 M442,35H201v73h241V35L442,35z"/>
</g>
<g>
	<polygon class="st0" points="442.42,35.66 504.56,72.01 442.01,107.64 	"/>
	<path d="M442.92,36.52l30.32,17.74L503.56,72l-30.52,17.39l-30.52,17.39l0.2-35.13L442.92,36.52 M441.93,34.79l-0.21,36.86
		l-0.21,36.86l32.03-18.25l32.03-18.25L473.74,53.4L441.93,34.79L441.93,34.79z"/>
</g>
<g>
	<line class="st1" x1="502.5" y1="72.5" x2="685.5" y2="72.5"/>
</g>
<rect x="89.5" y="66.5" class="st2" width="111" height="7"/>
<rect x="84.5" y="19.5" class="st2" width="5" height="102"/>
<line class="st1" x1="421.5" y1="35.5" x2="421.5" y2="70.5"/>
<line class="st1" x1="410.5" y1="35.5" x2="410.5" y2="70.5"/>
<line class="st1" x1="399.68" y1="35.49" x2="399.68" y2="70.49"/>
<line class="st1" x1="389.68" y1="35.49" x2="389.68" y2="70.49"/>
<line class="st1" x1="380.68" y1="35.49" x2="380.68" y2="70.49"/>
<line class="st1" x1="371.68" y1="35.49" x2="371.68" y2="70.49"/>
<line class="st1" x1="363.68" y1="35.49" x2="363.68" y2="70.49"/>
<line class="st1" x1="356.68" y1="35.49" x2="356.68" y2="70.49"/>
<line class="st1" x1="348.68" y1="35.49" x2="348.68" y2="70.49"/>
<line class="st1" x1="340.5" y1="35" x2="340.5" y2="70"/>
<g>
	<line class="st1" x1="331.5" y1="34.5" x2="331.5" y2="85.5"/>
</g>
<line class="st1" x1="321.5" y1="35" x2="321.5" y2="70"/>
<line class="st1" x1="313.5" y1="34" x2="313.5" y2="69"/>
</svg>
