<?xml version="1.0" encoding="utf-8"?>
<!-- Generator: Adobe Illustrator 24.0.1, SVG Export Plug-In . SVG Version: 6.00 Build 0)  -->
<svg version="1.1" id="Layer_1" xmlns="http://www.w3.org/2000/svg" xmlns:xlink="http://www.w3.org/1999/xlink" x="0px" y="0px"
	 viewBox="0 0 1172 165" style="enable-background:new 0 0 1172 165;" xml:space="preserve">
<style type="text/css">
	.st0{fill:#FFFFFF;}
	.st1{fill:none;stroke:#000000;stroke-miterlimit:10;}
	.st2{fill-rule:evenodd;clip-rule:evenodd;fill:none;stroke:#000000;stroke-miterlimit:10;}
	.st3{fill-rule:evenodd;clip-rule:evenodd;fill:none;}
	.st4{display:none;}
	.st5{font-family:'MyriadPro-Regular';}
	.st6{font-size:21px;}
	.st7{fill:none;}
</style>
<g>
	<path class="st0" d="M66.26,122.5c-8.69,0-15.76-7.07-15.76-15.76V46.26c0-8.69,7.07-15.76,15.76-15.76h133.48
		c8.69,0,15.76,7.07,15.76,15.76v60.48c0,8.69-7.07,15.76-15.76,15.76H66.26z"/>
	<path d="M199.74,31c8.42,0,15.26,6.85,15.26,15.26v60.48c0,8.42-6.85,15.26-15.26,15.26H66.26C57.85,122,51,115.15,51,106.74V46.26
		C51,37.85,57.85,31,66.26,31H199.74 M199.74,30H66.26C57.28,30,50,37.28,50,46.26v60.48c0,8.98,7.28,16.26,16.26,16.26h133.48
		c8.98,0,16.26-7.28,16.26-16.26V46.26C216,37.28,208.72,30,199.74,30L199.74,30z"/>
</g>
<g>
	<path class="st0" d="M302.26,123.5c-8.69,0-15.76-7.07-15.76-15.76V47.26c0-8.69,7.07-15.76,15.76-15.76h133.48
		c8.69,0,15.76,7.07,15.76,15.76v60.48c0,8.69-7.07,15.76-15.76,15.76H302.26z"/>
	<path d="M435.74,32c8.42,0,15.26,6.85,15.26,15.26v60.48c0,8.42-6.85,15.26-15.26,15.26H302.26c-8.42,0-15.26-6.85-15.26-15.26
		V47.26c0-8.42,6.85-15.26,15.26-15.26H435.74 M435.74,31H302.26C293.28,31,286,38.28,286,47.26v60.48
		c0,8.98,7.28,16.26,16.26,16.26h133.48c8.98,0,16.26-7.28,16.26-16.26V47.26C452,38.28,444.72,31,435.74,31L435.74,31z"/>
</g>
<g>
	<line class="st1" x1="223.5" y1="78.5" x2="259.5" y2="78.5"/>
</g>
<polygon class="st2" points="269.33,79.35 264.27,82.42 259.21,85.49 259.08,79.57 258.96,73.66 264.14,76.5 "/>
<rect x="89.53" y="68.39" class="st3" width="157.82" height="53.74"/>
<text transform="matrix(1 0 0 1 89.5308 83.2974)" class="st4 st5 st6">Stimulus</text>
<polygon class="st2" points="505.63,80.76 500.57,83.82 495.5,86.89 495.38,80.98 495.25,75.06 500.44,77.91 "/>
<g>
	<line class="st1" x1="459" y1="80.5" x2="495" y2="80.5"/>
</g>
<g>
	<path class="st0" d="M534.26,124.5c-8.69,0-15.76-7.07-15.76-15.76V48.26c0-8.69,7.07-15.76,15.76-15.76h133.48
		c8.69,0,15.76,7.07,15.76,15.76v60.48c0,8.69-7.07,15.76-15.76,15.76H534.26z"/>
	<path d="M667.74,33c8.42,0,15.26,6.85,15.26,15.26v60.48c0,8.42-6.85,15.26-15.26,15.26H534.26c-8.42,0-15.26-6.85-15.26-15.26
		V48.26c0-8.42,6.85-15.26,15.26-15.26H667.74 M667.74,32H534.26C525.28,32,518,39.28,518,48.26v60.48
		c0,8.98,7.28,16.26,16.26,16.26h133.48c8.98,0,16.26-7.28,16.26-16.26V48.26C684,39.28,676.72,32,667.74,32L667.74,32z"/>
</g>
<rect x="602.03" y="67.71" class="st3" width="146.94" height="36.73"/>
<text transform="matrix(1 0 0 1 602.0273 82.6172)" class="st4 st5 st6">Respons</text>
<rect x="322.76" y="70.55" class="st7" width="132.65" height="33.33"/>
<text transform="matrix(1 0 0 1 322.7549 85.4604)" class="st4 st5 st6">Organismen</text>
<g>
	<path class="st0" d="M769.26,124.5c-8.69,0-15.76-7.07-15.76-15.76V48.26c0-8.69,7.07-15.76,15.76-15.76h133.48
		c8.69,0,15.76,7.07,15.76,15.76v60.48c0,8.69-7.07,15.76-15.76,15.76H769.26z"/>
	<path d="M902.74,33c8.42,0,15.26,6.85,15.26,15.26v60.48c0,8.42-6.85,15.26-15.26,15.26H769.26c-8.42,0-15.26-6.85-15.26-15.26
		V48.26c0-8.42,6.85-15.26,15.26-15.26H902.74 M902.74,32H769.26C760.28,32,753,39.28,753,48.26v60.48
		c0,8.98,7.28,16.26,16.26,16.26h133.48c8.98,0,16.26-7.28,16.26-16.26V48.26C919,39.28,911.72,32,902.74,32L902.74,32z"/>
</g>
<g>
	<path class="st0" d="M994.26,124.5c-8.69,0-15.76-7.07-15.76-15.76V48.26c0-8.69,7.07-15.76,15.76-15.76h133.48
		c8.69,0,15.76,7.07,15.76,15.76v60.48c0,8.69-7.07,15.76-15.76,15.76H994.26z"/>
	<path d="M1127.74,33c8.42,0,15.26,6.85,15.26,15.26v60.48c0,8.42-6.85,15.26-15.26,15.26H994.26c-8.42,0-15.26-6.85-15.26-15.26
		V48.26c0-8.42,6.85-15.26,15.26-15.26H1127.74 M1127.74,32H994.26C985.28,32,978,39.28,978,48.26v60.48
		c0,8.98,7.28,16.26,16.26,16.26h133.48c8.98,0,16.26-7.28,16.26-16.26V48.26C1144,39.28,1136.72,32,1127.74,32L1127.74,32z"/>
</g>
<g>
	<line class="st1" x1="696" y1="79.5" x2="732" y2="79.5"/>
</g>
<g>
	<line class="st1" x1="922" y1="79.5" x2="958" y2="79.5"/>
</g>
<polygon class="st2" points="742.89,79.76 737.82,82.82 732.76,85.89 732.64,79.98 732.51,74.06 737.7,76.91 "/>
<polygon class="st2" points="967.95,79.39 962.89,82.45 957.82,85.52 957.7,79.6 957.57,73.69 962.76,76.54 "/>
<rect x="99" y="67.85" class="st3" width="147.69" height="42.46"/>
<text transform="matrix(1 0 0 1 99 82.7559)" class="st5 st6">Hvem</text>
<rect x="321.08" y="67.31" class="st3" width="124.31" height="41.23"/>
<text transform="matrix(1 0 0 1 321.0771 82.2173)" class="st5 st6">Siger hvad</text>
<rect x="526.77" y="60.46" class="st7" width="151.23" height="52.54"/>
<text transform="matrix(1 0 0 1 530.6182 75.3711)"><tspan x="0" y="0" class="st5 st6">Gennem hvilken </tspan><tspan x="48.42" y="25.2" class="st5 st6">kanal</tspan></text>
<rect x="768.85" y="61.46" class="st7" width="142.77" height="37.54"/>
<text transform="matrix(1 0 0 1 802.9561 76.3711)" class="st5 st6">Til hvem</text>
<rect x="997.15" y="56.54" class="st7" width="133.54" height="48"/>
<text transform="matrix(1 0 0 1 1010.248 71.4482)"><tspan x="0" y="0" class="st5 st6">Med hvilken </tspan><tspan x="28.63" y="25.2" class="st5 st6">effekt</tspan></text>
</svg>
