<?xml version="1.0" encoding="utf-8"?>
<!-- Generator: Adobe Illustrator 24.0.1, SVG Export Plug-In . SVG Version: 6.00 Build 0)  -->
<svg version="1.1" id="Layer_1" xmlns="http://www.w3.org/2000/svg" xmlns:xlink="http://www.w3.org/1999/xlink" x="0px" y="0px"
	 viewBox="0 0 758 163" style="enable-background:new 0 0 758 163;" xml:space="preserve">
<style type="text/css">
	.st0{fill:#FFFFFF;}
	.st1{fill:none;stroke:#000000;stroke-miterlimit:10;}
	.st2{fill-rule:evenodd;clip-rule:evenodd;fill:none;stroke:#000000;stroke-miterlimit:10;}
	.st3{fill-rule:evenodd;clip-rule:evenodd;fill:none;}
	.st4{font-family:'MyriadPro-Regular';}
	.st5{font-size:21px;}
	.st6{fill:none;}
</style>
<g>
	<path class="st0" d="M66.26,122.5c-8.69,0-15.76-7.07-15.76-15.76V46.26c0-8.69,7.07-15.76,15.76-15.76h133.48
		c8.69,0,15.76,7.07,15.76,15.76v60.48c0,8.69-7.07,15.76-15.76,15.76H66.26z"/>
	<path d="M199.74,31c8.42,0,15.26,6.85,15.26,15.26v60.48c0,8.42-6.85,15.26-15.26,15.26H66.26C57.85,122,51,115.15,51,106.74V46.26
		C51,37.85,57.85,31,66.26,31H199.74 M199.74,30H66.26C57.28,30,50,37.28,50,46.26v60.48c0,8.98,7.28,16.26,16.26,16.26h133.48
		c8.98,0,16.26-7.28,16.26-16.26V46.26C216,37.28,208.72,30,199.74,30L199.74,30z"/>
</g>
<g>
	<path class="st0" d="M311.26,123.5c-8.69,0-15.76-7.07-15.76-15.76V47.26c0-8.69,7.07-15.76,15.76-15.76h133.48
		c8.69,0,15.76,7.07,15.76,15.76v60.48c0,8.69-7.07,15.76-15.76,15.76H311.26z"/>
	<path d="M444.74,32c8.42,0,15.26,6.85,15.26,15.26v60.48c0,8.42-6.85,15.26-15.26,15.26H311.26c-8.42,0-15.26-6.85-15.26-15.26
		V47.26c0-8.42,6.85-15.26,15.26-15.26H444.74 M444.74,31H311.26C302.28,31,295,38.28,295,47.26v60.48
		c0,8.98,7.28,16.26,16.26,16.26h133.48c8.98,0,16.26-7.28,16.26-16.26V47.26C461,38.28,453.72,31,444.74,31L444.74,31z"/>
</g>
<g>
	<line class="st1" x1="223.5" y1="78.5" x2="259.5" y2="78.5"/>
</g>
<polygon class="st2" points="269.33,79.35 264.27,82.42 259.21,85.49 259.08,79.57 258.96,73.66 264.14,76.5 "/>
<rect x="88.53" y="68.39" class="st3" width="157.82" height="53.74"/>
<text transform="matrix(1 0 0 1 88.5308 83.2974)" class="st4 st5">Stimulus</text>
<polygon class="st2" points="527.63,80.76 522.57,83.82 517.5,86.89 517.38,80.98 517.25,75.06 522.44,77.91 "/>
<g>
	<line class="st1" x1="481" y1="80.5" x2="517" y2="80.5"/>
</g>
<g>
	<path class="st0" d="M570.26,124.5c-8.69,0-15.76-7.07-15.76-15.76V48.26c0-8.69,7.07-15.76,15.76-15.76h133.48
		c8.69,0,15.76,7.07,15.76,15.76v60.48c0,8.69-7.07,15.76-15.76,15.76H570.26z"/>
	<path d="M703.74,33c8.42,0,15.26,6.85,15.26,15.26v60.48c0,8.42-6.85,15.26-15.26,15.26H570.26c-8.42,0-15.26-6.85-15.26-15.26
		V48.26c0-8.42,6.85-15.26,15.26-15.26H703.74 M703.74,32H570.26C561.28,32,554,39.28,554,48.26v60.48
		c0,8.98,7.28,16.26,16.26,16.26h133.48c8.98,0,16.26-7.28,16.26-16.26V48.26C720,39.28,712.72,32,703.74,32L703.74,32z"/>
</g>
<rect x="601.03" y="67.71" class="st3" width="146.94" height="36.73"/>
<text transform="matrix(1 0 0 1 601.0273 82.6172)" class="st4 st5">Respons</text>
<rect x="321.76" y="70.55" class="st6" width="132.65" height="33.33"/>
<text transform="matrix(1 0 0 1 321.7549 85.4604)" class="st4 st5">Organismen</text>
</svg>
