<?xml version="1.0" encoding="utf-8"?>
<!-- Generator: Adobe Illustrator 24.0.1, SVG Export Plug-In . SVG Version: 6.00 Build 0)  -->
<svg version="1.1" id="Layer_1" xmlns="http://www.w3.org/2000/svg" xmlns:xlink="http://www.w3.org/1999/xlink" x="0px" y="0px"
	 viewBox="0 0 504 164" style="enable-background:new 0 0 504 164;" xml:space="preserve">
<style type="text/css">
	.st0{fill:#FFFFFF;}
	.st1{fill:none;stroke:#000000;stroke-miterlimit:10;}
	.st2{fill-rule:evenodd;clip-rule:evenodd;fill:none;stroke:#000000;stroke-miterlimit:10;}
	.st3{fill-rule:evenodd;clip-rule:evenodd;fill:none;}
	.st4{font-family:'MyriadPro-Regular';}
	.st5{font-size:21px;}
</style>
<g>
	<path class="st0" d="M66.26,122.5c-8.69,0-15.76-7.07-15.76-15.76V46.26c0-8.69,7.07-15.76,15.76-15.76h133.48
		c8.69,0,15.76,7.07,15.76,15.76v60.48c0,8.69-7.07,15.76-15.76,15.76H66.26z"/>
	<path d="M199.74,31c8.42,0,15.26,6.85,15.26,15.26v60.48c0,8.42-6.85,15.26-15.26,15.26H66.26C57.85,122,51,115.15,51,106.74V46.26
		C51,37.85,57.85,31,66.26,31H199.74 M199.74,30H66.26C57.28,30,50,37.28,50,46.26v60.48c0,8.98,7.28,16.26,16.26,16.26h133.48
		c8.98,0,16.26-7.28,16.26-16.26V46.26C216,37.28,208.72,30,199.74,30L199.74,30z"/>
</g>
<g>
	<path class="st0" d="M304.26,124.5c-8.69,0-15.76-7.07-15.76-15.76V48.26c0-8.69,7.07-15.76,15.76-15.76h133.48
		c8.69,0,15.76,7.07,15.76,15.76v60.48c0,8.69-7.07,15.76-15.76,15.76H304.26z"/>
	<path d="M437.74,33c8.42,0,15.26,6.85,15.26,15.26v60.48c0,8.42-6.85,15.26-15.26,15.26H304.26c-8.42,0-15.26-6.85-15.26-15.26
		V48.26c0-8.42,6.85-15.26,15.26-15.26H437.74 M437.74,32H304.26C295.28,32,288,39.28,288,48.26v60.48
		c0,8.98,7.28,16.26,16.26,16.26h133.48c8.98,0,16.26-7.28,16.26-16.26V48.26C454,39.28,446.72,32,437.74,32L437.74,32z"/>
</g>
<g>
	<line class="st1" x1="223.5" y1="78.5" x2="259.5" y2="78.5"/>
</g>
<polygon class="st2" points="269.33,79.35 264.27,82.42 259.21,85.49 259.08,79.57 258.96,73.66 264.14,76.5 "/>
<rect x="88.53" y="68.39" class="st3" width="157.82" height="53.74"/>
<text transform="matrix(1 0 0 1 88.5308 83.2974)" class="st4 st5">Stimulus</text>
<rect x="330.03" y="68.71" class="st3" width="146.94" height="36.73"/>
<text transform="matrix(1 0 0 1 330.0273 83.6172)" class="st4 st5">Respons</text>
</svg>
