<?xml version="1.0" encoding="utf-8"?>
<!-- Generator: Adobe Illustrator 24.0.1, SVG Export Plug-In . SVG Version: 6.00 Build 0)  -->
<svg version="1.1" id="Layer_1" xmlns="http://www.w3.org/2000/svg" xmlns:xlink="http://www.w3.org/1999/xlink" x="0px" y="0px"
	 viewBox="0 0 800 366.09" style="enable-background:new 0 0 800 366.09;" xml:space="preserve">
<style type="text/css">
	.st0{fill:none;stroke:#1D1D1B;stroke-miterlimit:10;}
	.st1{fill:none;}
	.st2{font-family:'MyriadPro-Regular';}
	.st3{font-size:36px;}
	.st4{font-size:24px;}
</style>
<line class="st0" x1="77.81" y1="179.17" x2="77.81" y2="282.76"/>
<line class="st0" x1="180.03" y1="282.76" x2="77.81" y2="282.76"/>
<line class="st0" x1="381.4" y1="282.76" x2="281.74" y2="282.76"/>
<line class="st0" x1="381.4" y1="179.17" x2="381.4" y2="282.76"/>
<rect x="70.61" y="150.03" class="st1" width="367.63" height="58.27"/>
<text transform="matrix(1 0 0 1 70.6114 175.5884)" class="st2 st3">&lt;h1 class=”primary”&gt;</text>
<line class="st0" x1="144.71" y1="188.52" x2="144.71" y2="236.72"/>
<line class="st0" x1="350.47" y1="188.52" x2="350.47" y2="236.72"/>
<line class="st0" x1="144.71" y1="236.72" x2="190.76" y2="236.72"/>
<line class="st0" x1="350.47" y1="236.72" x2="297.85" y2="236.72"/>
<rect x="199.75" y="224.67" class="st1" width="147.48" height="41.73"/>
<text transform="matrix(1 0 0 1 199.746 241.7084)" class="st2 st4">Attribute</text>
<rect x="190.76" y="273.98" class="st1" width="152.52" height="51.8"/>
<text transform="matrix(1 0 0 1 190.7554 291.0251)" class="st2 st4">Start tag</text>
<line class="st1" x1="108.02" y1="76.29" x2="108.02" y2="136"/>
<line class="st1" x1="195.07" y1="76.29" x2="195.07" y2="132.4"/>
<line class="st1" x1="103.71" y1="87.08" x2="103.71" y2="143.2"/>
<line class="st0" x1="103.71" y1="95" x2="103.71" y2="143.2"/>
<line class="st0" x1="201.55" y1="95" x2="201.55" y2="143.2"/>
<line class="st0" x1="305.86" y1="95" x2="305.86" y2="143.2"/>
<rect x="39.32" y="25.21" class="st1" width="128.78" height="75.54"/>
<text transform="matrix(1 0 0 1 85.2492 42.2482)"><tspan x="0" y="0" class="st2 st4">Tag</tspan><tspan x="-7.66" y="28.8" class="st2 st4">Navn</tspan></text>
<rect x="142.55" y="25.33" class="st1" width="124.46" height="81.29"/>
<text transform="matrix(1 0 0 1 159.3413 42.3718)"><tspan x="0" y="0" class="st2 st4">Attribute</tspan><tspan x="19.33" y="28.8" class="st2 st4">Navn</tspan></text>
<rect x="268.45" y="26.4" class="st1" width="90.65" height="61.15"/>
<text transform="matrix(1 0 0 1 281.2451 43.444)"><tspan x="0" y="0" class="st2 st4">Attrib</tspan><tspan x="57.69" y="0" class="st2 st4">-</tspan><tspan x="15.94" y="28.8" class="st2 st4">ute</tspan></text>
<line class="st1" x1="87.88" y1="290.68" x2="87.88" y2="328.81"/>
<line class="st1" x1="103.71" y1="328.81" x2="745.08" y2="328.81"/>
<line class="st1" x1="7.3" y1="6.5" x2="539.67" y2="6.5"/>
<line class="st0" x1="81.28" y1="296.39" x2="81.28" y2="344.59"/>
<line class="st0" x1="81.28" y1="344.59" x2="710.72" y2="344.59"/>
<rect x="399.04" y="154.35" class="st1" width="224.46" height="68.35"/>
<text transform="matrix(1 0 0 1 402.0558 171.3848)" class="st2 st4">Eksempel på headline</text>
<line class="st0" x1="411.8" y1="179.71" x2="411.8" y2="282.22"/>
<rect x="409.37" y="270.78" class="st1" width="209.35" height="63.31"/>
<text transform="matrix(1 0 0 1 432.1397 287.8151)" class="st2 st4">Påvirket indhold</text>
<line class="st0" x1="411.8" y1="282.22" x2="424.39" y2="282.52"/>
<line class="st0" x1="614.86" y1="176.65" x2="614.86" y2="282.76"/>
<line class="st0" x1="597.63" y1="282.37" x2="614.54" y2="282.37"/>
<rect x="622.5" y="147.03" class="st1" width="106.24" height="37.26"/>
<text transform="matrix(1 0 0 1 628.7616 172.5883)" class="st2 st3">&lt;/h1&gt;</text>
<line class="st0" x1="634.69" y1="174.49" x2="634.69" y2="282.22"/>
<line class="st0" x1="716.26" y1="174.49" x2="716.26" y2="282.22"/>
<rect x="644.23" y="257.83" class="st1" width="62.94" height="54.88"/>
<text transform="matrix(1 0 0 1 656.3701 274.8655)"><tspan x="0" y="0" class="st2 st4">Slut</tspan><tspan x="0.88" y="28.8" class="st2 st4">Tag</tspan></text>
<line class="st0" x1="654.01" y1="282.76" x2="634.46" y2="282.76"/>
<line class="st0" x1="716.94" y1="282.22" x2="697.4" y2="282.22"/>
<line class="st0" x1="710.72" y1="296.39" x2="710.72" y2="344.59"/>
<rect x="320.67" y="319.23" class="st1" width="182.27" height="29.71"/>
<text transform="matrix(1 0 0 1 338.7593 336.2723)" class="st2 st4">HTML Element</text>
</svg>
