<?xml version="1.0" encoding="utf-8"?>
<!-- Generator: Adobe Illustrator 24.0.1, SVG Export Plug-In . SVG Version: 6.00 Build 0)  -->
<svg version="1.1" id="Layer_1" xmlns="http://www.w3.org/2000/svg" xmlns:xlink="http://www.w3.org/1999/xlink" x="0px" y="0px"
	 viewBox="0 0 743 316" style="enable-background:new 0 0 743 316;" xml:space="preserve">
<style type="text/css">
	.st0{fill:none;}
	.st1{font-family:'MyriadPro-Regular';}
	.st2{font-size:12px;}
	.st3{fill:#FFFFFF;stroke:#000000;stroke-miterlimit:10;}
</style>
<rect x="270.69" y="49.02" class="st0" width="195.31" height="54.98"/>
<text transform="matrix(1 0 0 1 346.3032 57.5405)"><tspan x="0" y="0" class="st1 st2">Kontekst</tspan><tspan x="-40" y="14.4" class="st1 st2">Den referentielle og  den</tspan><tspan x="-36.45" y="28.8" class="st1 st2">intertekstuelle funktion</tspan></text>
<rect x="149.46" y="112.32" class="st0" width="119.05" height="89.12"/>
<text transform="matrix(1 0 0 1 167.2568 120.8398)"><tspan x="0" y="0" class="st1 st2">Implicit afsender</tspan><tspan x="-11.27" y="14.4" class="st1 st2">Den epsressive og de </tspan><tspan x="-6.31" y="28.8" class="st1 st2">emotive funktioner</tspan></text>
<rect x="286.2" y="108.24" class="st0" width="147.62" height="87.07"/>
<text transform="matrix(1 0 0 1 340.0688 116.7583)"><tspan x="0" y="0" class="st1 st2">Produkt</tspan><tspan x="-47.9" y="14.4" class="st1 st2">Den formale of uudsigelige </tspan><tspan x="-26.14" y="28.8" class="st1 st2">æstetiske funktion</tspan></text>
<rect x="455.63" y="109.6" class="st0" width="146.94" height="65.99"/>
<text transform="matrix(1 0 0 1 484.1914 118.1187)"><tspan x="0" y="0" class="st1 st2">Implicit modtager</tspan><tspan x="-24.18" y="14.4" class="st1 st2">Den konative og interaktive </tspan><tspan x="18.72" y="28.8" class="st1 st2">funktioner</tspan></text>
<line class="st3" x1="615" y1="86" x2="616" y2="175"/>
<line class="st3" x1="142.5" y1="94" x2="143.5" y2="183"/>
<rect x="627.73" y="92.39" class="st0" width="97.28" height="89.8"/>
<text transform="matrix(1 0 0 1 633.0127 100.9077)"><tspan x="0" y="0" class="st1 st2">Faktisk modtager</tspan><tspan x="3.05" y="14.4" class="st1 st2">Undersøgelse af </tspan><tspan x="0.97" y="28.8" class="st1 st2">den kognitive og </tspan><tspan x="2.21" y="43.2" class="st1 st2">den emotionelle </tspan><tspan x="19.27" y="57.6" class="st1 st2">reception</tspan></text>
<rect x="21" y="105.76" class="st0" width="105.57" height="106.12"/>
<text transform="matrix(1 0 0 1 33.5981 114.2749)"><tspan x="0" y="0" class="st1 st2">Faktisk afsender</tspan><tspan x="-0.12" y="14.4" class="st1 st2">Undersøgelse af </tspan><tspan x="-8.24" y="28.8" class="st1 st2">afsenders intention</tspan></text>
<rect x="301.84" y="192.59" class="st0" width="142.18" height="69.39"/>
<text transform="matrix(1 0 0 1 357.3086 201.1118)"><tspan x="0" y="0" class="st1 st2">Medie </tspan><tspan x="-33.94" y="28.8" class="st1 st2">Den faktiske og den </tspan><tspan x="-32.9" y="43.2" class="st1 st2">navigative funktion</tspan></text>
<rect x="303.64" y="266.54" class="st0" width="140.14" height="74.83"/>
<text transform="matrix(1 0 0 1 360.7715 275.0635)"><tspan x="0" y="0" class="st1 st2">Kode </tspan><tspan x="-50.7" y="14.4" class="st1 st2">Den metakommunikative </tspan><tspan x="-55.39" y="28.8" class="st1 st2">og intersemiostiske funtion</tspan></text>
<rect x="-43.05" y="15.34" class="st0" width="228.57" height="35.37"/>
<text transform="matrix(1 0 0 1 27.144 23.8604)" class="st1 st2">Thorlacius’ Model</text>
</svg>
