<?xml version="1.0" encoding="utf-8"?>
<!-- Generator: Adobe Illustrator 24.0.1, SVG Export Plug-In . SVG Version: 6.00 Build 0)  -->
<svg version="1.1" id="Layer_1" xmlns="http://www.w3.org/2000/svg" xmlns:xlink="http://www.w3.org/1999/xlink" x="0px" y="0px"
	 viewBox="0 0 805 294" style="enable-background:new 0 0 805 294;" xml:space="preserve">
<style type="text/css">
	.st0{fill:#FFFFFF;}
	.st1{fill:none;stroke:#000000;stroke-miterlimit:10;}
	.st2{fill-rule:evenodd;clip-rule:evenodd;fill:none;stroke:#000000;stroke-miterlimit:10;}
	.st3{fill-rule:evenodd;clip-rule:evenodd;fill:none;}
	.st4{font-family:'MyriadPro-Regular';}
	.st5{font-size:12px;}
	.st6{fill:none;}
</style>
<g>
	<rect x="47.5" y="38.5" class="st0" width="250" height="224"/>
	<path d="M297,39v223H48V39H297 M298,38H47v225h251V38L298,38z"/>
</g>
<g>
	<circle class="st0" cx="658.5" cy="150.5" r="129"/>
	<path d="M658.5,22c34.32,0,66.59,13.37,90.86,37.64S787,116.18,787,150.5s-13.37,66.59-37.64,90.86
		C725.09,265.63,692.82,279,658.5,279s-66.59-13.37-90.86-37.64C543.37,217.09,530,184.82,530,150.5s13.37-66.59,37.64-90.86
		S624.18,22,658.5,22 M658.5,21C586.98,21,529,78.98,529,150.5S586.98,280,658.5,280S788,222.02,788,150.5S730.02,21,658.5,21
		L658.5,21z"/>
</g>
<g>
	<line class="st1" x1="47.5" y1="37.5" x2="156.5" y2="153.5"/>
</g>
<g>
	<line class="st1" x1="156.5" y1="153.5" x2="47.24" y2="263.33"/>
</g>
<g>
	<line class="st1" x1="156.5" y1="153.5" x2="373.5" y2="153.5"/>
</g>
<line class="st1" x1="735.5" y1="45.5" x2="666.5" y2="148.5"/>
<line class="st1" x1="756.5" y1="234.5" x2="667.5" y2="148.5"/>
<line class="st1" x1="393.5" y1="152.5" x2="667.5" y2="148.5"/>
<polygon class="st2" points="381.34,152.82 377.64,154.99 373.93,157.17 373.9,152.87 373.87,148.58 377.6,150.7 "/>
<polygon class="st2" points="393.24,157.53 389.59,155.26 385.94,153 389.73,150.97 393.52,148.94 393.38,153.23 "/>
<rect x="568.85" y="88.46" class="st3" width="88.15" height="34.15"/>
<text transform="matrix(1 0 0 1 568.8457 96.9814)" class="st4 st5">Gains</text>
<rect x="565.62" y="175.23" class="st3" width="68.31" height="31.85"/>
<text transform="matrix(1 0 0 1 565.6152 183.75)" class="st4 st5">Pains</text>
<rect x="708.69" y="125.85" class="st3" width="62.77" height="36.46"/>
<text transform="matrix(1 0 0 1 708.6924 134.3662)" class="st4 st5">Job</text>
<rect x="53.54" y="134.85" class="st3" width="82.62" height="35.54"/>
<text transform="matrix(1 0 0 1 53.5386 143.3662)"><tspan x="0" y="0" class="st4 st5">Produkter </tspan><tspan x="0" y="14.4" class="st4 st5">&amp; services</tspan></text>
<rect x="157.62" y="73.23" class="st6" width="90.46" height="34.62"/>
<text transform="matrix(1 0 0 1 157.6152 81.751)" class="st4 st5">Gain creators</text>
<rect x="159" y="196.92" class="st6" width="106.62" height="39.69"/>
<text transform="matrix(1 0 0 1 159 205.4424)" class="st4 st5">Pain relievers</text>
</svg>
